<svg width="16" height="20" viewBox="0 0 16 20" fill="none" xmlns="http://www.w3.org/2000/svg">
<path d="M15.2727 0H0.727273C0.325 0 0 0.319196 0 0.714286V19.2857C0 19.6808 0.325 20 0.727273 20H15.2727C15.675 20 16 19.6808 16 19.2857V0.714286C16 0.319196 15.675 0 15.2727 0ZM9.36364 1.60714H11.5455V6.29241L10.4886 5.53571L9.36364 6.32589V1.60714ZM14.3636 18.3929H1.63636V1.60714H8V8.23438C8 8.30804 8.02273 8.3817 8.06818 8.44197C8.09577 8.48027 8.13083 8.51283 8.17131 8.53774C8.2118 8.56266 8.25691 8.57944 8.30404 8.58712C8.35118 8.5948 8.39939 8.59323 8.4459 8.58249C8.49241 8.57175 8.53629 8.55206 8.575 8.52455L10.4795 7.1875L12.3295 8.51339C12.3909 8.55804 12.4659 8.58259 12.5432 8.58259C12.7432 8.58259 12.9068 8.42188 12.9068 8.22545V1.60714H14.3614V18.3929H14.3636Z" fill="#9DA2B9"/>
</svg>
