<svg width="20" height="16" viewBox="0 0 20 16" fill="none" xmlns="http://www.w3.org/2000/svg">
<path d="M19.2857 0H0.714286C0.319196 0 0 0.325 0 0.727273V15.2727C0 15.675 0.319196 16 0.714286 16H19.2857C19.6808 16 20 15.675 20 15.2727V0.727273C20 0.325 19.6808 0 19.2857 0ZM18.3929 14.3636H1.60714V1.63636H18.3929V14.3636ZM3.68527 12.4932C3.75446 12.5636 3.8683 12.5636 3.9375 12.4932L7.78795 8.57273L10.3415 11.175C10.4107 11.2455 10.5246 11.2455 10.5938 11.175L17.2232 4.42045C17.2924 4.35 17.2924 4.23409 17.2232 4.16364L16.4018 3.32727C16.3682 3.29344 16.3229 3.27445 16.2757 3.27445C16.2284 3.27445 16.1831 3.29344 16.1496 3.32727L10.4688 9.11364L7.91518 6.51136C7.88162 6.47753 7.83629 6.45855 7.78906 6.45855C7.74183 6.45855 7.69651 6.47753 7.66295 6.51136L2.86607 11.3977C2.83284 11.4319 2.8142 11.478 2.8142 11.5261C2.8142 11.5742 2.83284 11.6204 2.86607 11.6545L3.68527 12.4932Z" fill="#9DA2B9"/>
</svg>
