<?xml version="1.0" encoding="UTF-8"?>
<svg xmlns="http://www.w3.org/2000/svg" xmlns:xlink="http://www.w3.org/1999/xlink" width="34px" height="32px" viewBox="0 0 33 32" version="1.1">
<g id="surface1">
<path style=" stroke:none;fill-rule:nonzero;fill:rgb(22.352941%,82.745098%,32.54902%);fill-opacity:1;" d="M 0.402344 0 L 32.597656 0 C 32.820312 0 33 0.183594 33 0.40625 L 33 5.597656 C 33 5.820312 32.820312 6.003906 32.597656 6.003906 L 0.402344 6.003906 C 0.179688 6.003906 0 5.820312 0 5.597656 L 0 0.40625 C 0 0.183594 0.179688 0 0.402344 0 Z M 0.402344 0 "/>
<path style=" stroke:none;fill-rule:nonzero;fill:rgb(14.901961%,65.098039%,25.490196%);fill-opacity:1;" d="M 0.402344 8.652344 L 20.089844 8.652344 C 20.308594 8.652344 20.488281 8.835938 20.488281 9.0625 L 20.488281 14.25 C 20.488281 14.476562 20.308594 14.660156 20.089844 14.660156 L 0.402344 14.660156 C 0.179688 14.660156 0 14.476562 0 14.25 L 0 9.0625 C 0 8.835938 0.179688 8.652344 0.402344 8.652344 Z M 0.402344 8.652344 "/>
<path style=" stroke:none;fill-rule:nonzero;fill:rgb(0%,42.745098%,19.607843%);fill-opacity:1;" d="M 0.402344 17.308594 L 15.558594 17.308594 C 15.777344 17.308594 15.957031 17.492188 15.957031 17.714844 L 15.957031 22.90625 C 15.957031 23.128906 15.777344 23.3125 15.558594 23.3125 L 0.402344 23.3125 C 0.179688 23.3125 0 23.128906 0 22.90625 L 0 17.714844 C 0 17.492188 0.179688 17.308594 0.402344 17.308594 Z M 0.402344 17.308594 "/>
<path style=" stroke:none;fill-rule:nonzero;fill:rgb(14.901961%,65.098039%,25.490196%);fill-opacity:1;" d="M 0.402344 25.960938 L 25.941406 25.960938 C 26.164062 25.960938 26.34375 26.144531 26.34375 26.371094 L 26.34375 31.558594 C 26.34375 31.785156 26.164062 31.96875 25.941406 31.96875 L 0.402344 31.96875 C 0.179688 31.96875 0 31.785156 0 31.558594 L 0 26.371094 C 0 26.144531 0.179688 25.960938 0.402344 25.960938 Z M 0.402344 25.960938 "/>
</g>
</svg>
