<?xml version="1.0" standalone="no"?>
<!DOCTYPE svg PUBLIC "-//W3C//DTD SVG 20010904//EN"
 "http://www.w3.org/TR/2001/REC-SVG-20010904/DTD/svg10.dtd">
<svg version="1.0" xmlns="http://www.w3.org/2000/svg"
 width="2116.000000pt" height="2116.000000pt" viewBox="0 0 2116.000000 2116.000000"
 preserveAspectRatio="xMidYMid meet">
<metadata>
Created by potrace 1.14, written by Peter Selinger 2001-2017
</metadata>
<g transform="translate(0.000000,2116.000000) scale(0.100000,-0.100000)"
fill="#000000" stroke="none">
<path d="M1731 21149 c-211 -23 -441 -89 -639 -186 -605 -295 -1014 -881
-1082 -1552 -14 -145 -14 -17517 0 -17662 24 -231 86 -452 187 -657 295 -605
881 -1014 1552 -1082 145 -14 17517 -14 17662 0 231 24 452 86 657 187 605
295 1014 881 1082 1552 14 145 14 17517 0 17662 -24 231 -86 452 -187 657
-295 605 -881 1014 -1552 1082 -129 13 -17554 12 -17680 -1z m16984 -2757 c45
-26 81 -72 95 -123 15 -50 13 -2592 -1 -2644 -15 -54 -52 -101 -99 -125 -39
-20 -71 -20 -8120 -20 -8049 0 -8081 0 -8120 20 -47 24 -84 71 -100 125 -8 29
-10 387 -8 1345 l3 1305 23 40 c25 43 72 81 118 95 16 4 3647 8 8099 7 l8070
-2 40 -23z"/>
</g>
</svg>
