<svg width="20" height="19" viewBox="0 0 20 19" fill="none" xmlns="http://www.w3.org/2000/svg">
<path d="M19.7004 8.54354L9.43445 0.100421C9.35565 0.0360485 9.25511 0 9.14913 0H6.74433C6.54325 0 6.45086 0.236891 6.60303 0.360487L16.119 8.1882H0.217384C0.0978226 8.1882 0 8.2809 0 8.3942V9.93914C0 10.0524 0.0978226 10.1451 0.217384 10.1451H16.1163L6.60031 17.9728C6.44814 18.099 6.54053 18.3333 6.74161 18.3333H9.22793C9.27956 18.3333 9.33119 18.3153 9.36923 18.2818L19.7004 9.78979C19.7945 9.71228 19.8699 9.61654 19.9216 9.50905C19.9733 9.40155 20 9.2848 20 9.16667C20 9.04854 19.9733 8.93178 19.9216 8.82429C19.8699 8.71679 19.7945 8.62105 19.7004 8.54354Z" fill="#26A641"/>
</svg>
