<svg width="9" height="11" viewBox="0 0 9 11" fill="none" xmlns="http://www.w3.org/2000/svg">
<path d="M7.56818 0C6.77812 0 6.13636 0.670146 6.13636 1.49515C6.13636 2.13192 6.51861 2.67658 7.05682 2.89151V3.25995L4.5 6.69345L1.94318 3.25995V2.89151C2.48139 2.67658 2.86364 2.13192 2.86364 1.49515C2.86364 0.670146 2.22187 0 1.43182 0C0.641761 0 0 0.670146 0 1.49515C0 2.17063 0.432102 2.74332 1.02273 2.92755V3.38677C1.02273 3.51626 1.06491 3.64442 1.14162 3.74721L4.03977 7.63993V8.08847C3.47472 8.28871 3.06818 8.84806 3.06818 9.50485C3.06818 10.3299 3.70994 11 4.5 11C5.29006 11 5.93182 10.3299 5.93182 9.50485C5.93182 8.84806 5.52528 8.29005 4.96023 8.08847V7.63993L7.85838 3.74721C7.93509 3.64442 7.97727 3.51626 7.97727 3.38677V2.92755C8.5679 2.74332 9 2.17063 9 1.49515C9 0.670146 8.35824 0 7.56818 0ZM0.818182 1.49515C0.82146 1.32747 0.887551 1.16781 1.00227 1.05043C1.117 0.933057 1.27121 0.867316 1.43182 0.867316C1.59243 0.867316 1.74664 0.933057 1.86136 1.05043C1.97609 1.16781 2.04218 1.32747 2.04545 1.49515C2.04218 1.66283 1.97609 1.82248 1.86136 1.93986C1.74664 2.05723 1.59243 2.12298 1.43182 2.12298C1.27121 2.12298 1.117 2.05723 1.00227 1.93986C0.887551 1.82248 0.82146 1.66283 0.818182 1.49515ZM5.11364 9.50485C5.11036 9.67253 5.04427 9.83219 4.92954 9.94957C4.81482 10.0669 4.66061 10.1327 4.5 10.1327C4.33939 10.1327 4.18518 10.0669 4.07045 9.94957C3.95573 9.83219 3.88964 9.67253 3.88636 9.50485C3.88964 9.33717 3.95573 9.17752 4.07045 9.06014C4.18518 8.94277 4.33939 8.87702 4.5 8.87702C4.66061 8.87702 4.81482 8.94277 4.92954 9.06014C5.04427 9.17752 5.11036 9.33717 5.11364 9.50485ZM7.56818 2.13592C7.4076 2.1325 7.25471 2.06349 7.1423 1.94369C7.0299 1.82389 6.96694 1.66286 6.96694 1.49515C6.96694 1.32743 7.0299 1.1664 7.1423 1.0466C7.25471 0.926806 7.4076 0.857792 7.56818 0.854369C7.72876 0.857792 7.88165 0.926806 7.99406 1.0466C8.10646 1.1664 8.16942 1.32743 8.16942 1.49515C8.16942 1.66286 8.10646 1.82389 7.99406 1.94369C7.88165 2.06349 7.72876 2.1325 7.56818 2.13592Z" fill="#9DA2B9"/>
</svg>
