<svg width="13" height="12" viewBox="0 0 13 12" fill="none" xmlns="http://www.w3.org/2000/svg">
<path d="M7.17007 8.39807C7.1459 8.3748 7.11326 8.36175 7.07925 8.36175C7.04523 8.36175 7.01259 8.3748 6.98842 8.39807L5.12056 10.2138C4.25575 11.0544 2.79617 11.1435 1.84134 10.2138C0.884906 9.28405 0.976531 7.86679 1.84134 7.02612L3.70921 5.21041C3.75904 5.16197 3.75904 5.08228 3.70921 5.03384L3.06944 4.41193C3.04527 4.38867 3.01263 4.37562 2.97862 4.37562C2.94461 4.37562 2.91197 4.38867 2.8878 4.41193L1.01993 6.22765C-0.339977 7.54959 -0.339977 9.68875 1.01993 11.0091C2.37984 12.3295 4.58045 12.3311 5.93875 11.0091L7.80662 9.19342C7.85645 9.14498 7.85645 9.06529 7.80662 9.01685L7.17007 8.39807ZM11.327 0.991455C9.96704 -0.330485 7.76643 -0.330485 6.40813 0.991455L4.53866 2.80717C4.51473 2.83066 4.5013 2.86239 4.5013 2.89545C4.5013 2.92852 4.51473 2.96024 4.53866 2.98374L5.17682 3.60408C5.22665 3.65252 5.30863 3.65252 5.35846 3.60408L7.22633 1.78837C8.09114 0.947702 9.55071 0.858636 10.5055 1.78837C11.462 2.7181 11.3704 4.13536 10.5055 4.97602L8.63768 6.79174C8.61374 6.81523 8.60032 6.84696 8.60032 6.88002C8.60032 6.91309 8.61374 6.94481 8.63768 6.96831L9.27744 7.59021C9.32728 7.63865 9.40926 7.63865 9.45909 7.59021L11.327 5.7745C12.6853 4.45256 12.6853 2.31339 11.327 0.991455ZM7.75036 3.81815C7.72619 3.79489 7.69355 3.78184 7.65954 3.78184C7.62552 3.78184 7.59289 3.79489 7.56872 3.81815L3.92782 7.35583C3.90389 7.37932 3.89047 7.41105 3.89047 7.44411C3.89047 7.47718 3.90389 7.5089 3.92782 7.5324L4.56438 8.15118C4.61421 8.19962 4.69619 8.19962 4.74602 8.15118L8.3853 4.61351C8.43514 4.56507 8.43514 4.48537 8.3853 4.43694L7.75036 3.81815Z" fill="#D9D9D9"/>
</svg>
