<svg width="70" height="70" viewBox="0 0 70 70" fill="none" xmlns="http://www.w3.org/2000/svg">
<g clip-path="url(#clip0_341_327)">
<path d="M61.7656 17.5469L44.9531 0.734375C44.4844 0.265625 43.8516 0 43.1875 0H10C8.61719 0 7.5 1.11719 7.5 2.5V67.5C7.5 68.8828 8.61719 70 10 70H60C61.3828 70 62.5 68.8828 62.5 67.5V19.3203C62.5 18.6562 62.2344 18.0156 61.7656 17.5469ZM56.7344 20.4688H42.0312V5.76562L56.7344 20.4688ZM56.875 64.375H13.125V5.625H36.7188V22.5C36.7188 23.3702 37.0645 24.2048 37.6798 24.8202C38.2952 25.4355 39.1298 25.7812 40 25.7812H56.875V64.375ZM35.1641 40.3203L30.3359 32.3203C30.1641 32.0391 29.8594 31.8672 29.5312 31.8672H26.5312C26.3516 31.8672 26.1797 31.9141 26.0312 32.0156C25.5938 32.2891 25.4609 32.8672 25.7422 33.3125L32.1719 43.5L25.6562 53.875C25.5677 54.0173 25.5188 54.1807 25.5146 54.3482C25.5104 54.5157 25.551 54.6814 25.6323 54.8279C25.7135 54.9745 25.8324 55.0967 25.9768 55.1819C26.1211 55.2671 26.2855 55.3122 26.4531 55.3125H29.1484C29.4766 55.3125 29.7734 55.1406 29.9453 54.8672L34.8438 46.9375L39.7109 54.8594C39.8828 55.1406 40.1875 55.3047 40.5078 55.3047H43.4375C43.6172 55.3047 43.7891 55.25 43.9453 55.1562C44.3828 54.875 44.5078 54.2969 44.2266 53.8594L37.6641 43.6719L44.3281 33.3203C44.4183 33.1784 44.4689 33.015 44.4745 32.8469C44.4801 32.6789 44.4405 32.5124 44.36 32.3649C44.2794 32.2173 44.1608 32.094 44.0164 32.0079C43.872 31.9217 43.7072 31.8758 43.5391 31.875H40.75C40.4219 31.875 40.1172 32.0469 39.9453 32.3281L35.1641 40.3203Z" fill="#9DA2B9"/>
</g>
<defs>
<clipPath id="clip0_341_327">
<rect width="70" height="70" fill="white"/>
</clipPath>
</defs>
</svg>
