<svg width="22" height="22" viewBox="0 0 22 22" fill="none" xmlns="http://www.w3.org/2000/svg">
<g clip-path="url(#clip0_326_357)">
<path d="M15.2576 7.00421C15.2576 6.89823 15.1692 6.81152 15.0612 6.81152L13.4406 6.81875L11 9.67293L8.56185 6.82116L6.93886 6.81393C6.83082 6.81393 6.74243 6.89823 6.74243 7.00662C6.74243 7.05238 6.75962 7.09574 6.78908 7.13187L9.9835 10.8652L6.78908 14.5961C6.75941 14.6314 6.74295 14.6756 6.74243 14.7213C6.74243 14.8273 6.83082 14.914 6.93886 14.914L8.56185 14.9068L11 12.0526L13.4382 14.9044L15.0587 14.9116C15.1668 14.9116 15.2552 14.8273 15.2552 14.7189C15.2552 14.6732 15.238 14.6298 15.2085 14.5937L12.019 10.8628L15.2134 7.12946C15.2429 7.09574 15.2576 7.04997 15.2576 7.00421Z" fill="white"/>
<path d="M11 0.0240479C4.92545 0.0240479 0 4.85568 0 10.8145C0 16.7734 4.92545 21.605 11 21.605C17.0746 21.605 22 16.7734 22 10.8145C22 4.85568 17.0746 0.0240479 11 0.0240479ZM11 19.7745C5.9567 19.7745 1.86607 15.7618 1.86607 10.8145C1.86607 5.86728 5.9567 1.85457 11 1.85457C16.0433 1.85457 20.1339 5.86728 20.1339 10.8145C20.1339 15.7618 16.0433 19.7745 11 19.7745Z" fill="white"/>
</g>
<defs>
<clipPath id="clip0_326_357">
<rect width="22" height="21.581" fill="white"/>
</clipPath>
</defs>
</svg>
