<svg width="597" height="162" viewBox="0 0 597 162" fill="none" xmlns="http://www.w3.org/2000/svg">
<path d="M396.787 149.991C396.787 156.618 402.159 161.991 408.787 161.991H585C591.627 161.991 597 156.618 597 149.991V110.117H396.787V149.991Z" fill="#1A1B24"/>
<rect width="221.145" height="161.991" rx="12" fill="#1A1B24"/>
<line x1="15.561" y1="16.3811" x2="15.561" y2="138.329" stroke="#393D50" stroke-width="2"/>
<line x1="66.3445" y1="138.33" x2="66.3445" y2="16.3811" stroke="#393D50" stroke-width="2"/>
<line x1="114.5" y1="138.329" x2="114.5" y2="16.3811" stroke="#393D50" stroke-width="2"/>
<line x1="164.748" y1="138.329" x2="164.748" y2="16.381" stroke="#393D50" stroke-width="2"/>
<rect x="14.561" y="16.3811" width="124.187" height="9.45588" fill="#26A641"/>
<rect x="14.561" y="45.3791" width="95.1892" height="9.45588" fill="#006D32"/>
<rect x="14.561" y="73.1164" width="42.2363" height="9.45588" fill="#0E4429"/>
<rect x="14.561" y="100.854" width="162.641" height="9.45588" fill="#26A641"/>
<rect x="14.561" y="128.319" width="185.652" height="10.0107" fill="#39D353"/>
<rect x="234.796" width="148.34" height="161.991" rx="12" fill="url(#paint0_linear_141_144)"/>
<path d="M308.511 90.096V141.059H358.564V90.096H308.511ZM335.325 129.684C335.325 134.645 332.447 137.063 328.281 137.063C324.518 137.063 322.333 135.079 321.225 132.685L325.055 130.324C325.794 131.658 326.354 132.787 327.967 132.787C329.307 132.787 330.409 132.172 330.409 129.777V113.758H335.325V129.684ZM346.425 136.949C342.058 136.949 339.235 134.943 337.858 132.172L341.693 129.911C342.699 131.588 344.012 132.705 346.33 132.705C348.279 132.705 349.41 131.827 349.41 130.458C349.41 128.817 348.245 128.236 346.094 127.273L344.919 126.759C341.525 125.289 339.274 123.442 339.274 119.541C339.274 115.95 341.962 113.326 346.161 113.326C349.152 113.326 351.301 114.273 352.848 117.044L349.179 119.445C348.372 117.975 347.503 117.398 346.156 117.398C344.778 117.398 343.904 118.287 343.904 119.445C343.904 120.882 344.778 121.464 346.794 122.353L347.969 122.866C351.968 124.611 354.219 126.393 354.219 130.392C354.22 134.704 350.894 136.949 346.425 136.949Z" fill="black"/>
<path d="M396.787 39.3018C396.787 32.6744 402.159 27.3018 408.787 27.3018H585C591.627 27.3018 597 32.6744 597 39.3018V110.117H396.787V39.3018Z" fill="url(#paint1_linear_141_144)"/>
<path d="M416.822 48.2332C415.806 48.2332 414.988 49.0517 414.988 50.0676V85.5315C414.988 86.5473 415.806 87.3658 416.822 87.3658H452.286C453.302 87.3658 454.12 86.5473 454.12 85.5315V50.0676C454.12 49.0517 453.302 48.2332 452.286 48.2332H416.822ZM445.133 64.1308C446.131 64.1308 447.015 64.1912 447.786 64.3118C448.513 64.4208 449.227 64.6067 449.915 64.8662V68.874C449.585 68.6456 449.234 68.4485 448.867 68.2854C448.488 68.1151 448.098 67.9734 447.698 67.8615C446.941 67.6505 446.159 67.5408 445.373 67.5354C444.883 67.5354 444.438 67.581 444.037 67.6756C443.68 67.7521 443.337 67.8853 443.021 68.0702C442.744 68.2398 442.532 68.4436 442.381 68.68C442.228 68.9183 442.149 69.1961 442.152 69.479C442.152 69.7986 442.239 70.0872 442.407 70.3415C442.576 70.5959 442.818 70.8372 443.129 71.0655C443.44 71.2937 443.819 71.5155 444.264 71.734C444.709 71.9541 445.213 72.1807 445.774 72.4123C446.54 72.7335 447.228 73.0759 447.838 73.4363C448.448 73.7982 448.971 74.2075 449.408 74.664C449.845 75.119 450.178 75.6391 450.409 76.2245C450.641 76.8098 450.758 77.4897 450.758 78.2675C450.758 79.3388 450.554 80.2404 450.15 80.9677C449.755 81.6849 449.188 82.2928 448.5 82.7368C447.758 83.207 446.936 83.5364 446.075 83.7086C445.153 83.9042 444.179 84.0021 443.157 84.0021C442.151 84.0065 441.146 83.917 440.157 83.7347C439.3 83.5866 438.47 83.3158 437.691 82.9308V78.6425C439.165 79.8966 441.034 80.5896 442.969 80.5992C443.512 80.5992 443.987 80.5502 444.391 80.4524C444.797 80.3546 445.135 80.2176 445.407 80.0448C445.678 79.8687 445.88 79.6632 446.015 79.4252C446.165 79.148 446.233 78.8342 446.211 78.5199C446.19 78.2057 446.08 77.9039 445.894 77.6495C445.652 77.329 445.356 77.0531 445.019 76.8343C444.601 76.5572 444.161 76.3151 443.703 76.1103C443.16 75.8625 442.613 75.6255 442.061 75.3994C440.564 74.7749 439.449 74.0102 438.714 73.1085C437.98 72.2068 437.611 71.116 437.611 69.8393C437.611 68.8382 437.812 67.9789 438.213 67.2598C438.614 66.5408 439.159 65.9489 439.85 65.4842C440.581 65.0018 441.393 64.6544 442.247 64.4586C443.193 64.2356 444.161 64.1256 445.133 64.1308ZM420.491 64.4374H436.084V67.9691H430.488V83.6972H426.057V67.9691H420.491V64.4374Z" fill="white"/>
<circle cx="560.143" cy="107.842" r="25.0267" fill="#393D50"/>
<path d="M569.853 107.385L559.576 98.9331C559.497 98.8687 559.397 98.8326 559.291 98.8326H556.883C556.682 98.8326 556.59 99.0697 556.742 99.1935L566.268 107.03H550.349C550.23 107.03 550.132 107.122 550.132 107.236V108.782C550.132 108.896 550.23 108.989 550.349 108.989H566.265L556.739 116.825C556.587 116.951 556.679 117.185 556.881 117.185H559.37C559.421 117.185 559.473 117.167 559.511 117.134L569.853 108.633C569.947 108.555 570.023 108.459 570.075 108.352C570.126 108.244 570.153 108.127 570.153 108.009C570.153 107.891 570.126 107.774 570.075 107.666C570.023 107.559 569.947 107.463 569.853 107.385Z" fill="#26A641"/>
<rect x="395.877" width="200.213" height="18.2012" rx="9.10061" fill="#C6538C"/>
<path d="M395.877 9.10061C395.877 4.07448 399.951 0 404.977 0H533.296V18.2012H404.977C399.951 18.2012 395.877 14.1267 395.877 9.10061Z" fill="#F7DF1E"/>
<path d="M533.296 0H480.512V18.2012H533.296V0Z" fill="#3178C6"/>
<path d="M533.296 0H574.248V18.2012H533.296V0Z" fill="#E34C26"/>
<defs>
<linearGradient id="paint0_linear_141_144" x1="252.808" y1="16.5512" x2="331.962" y2="130.867" gradientUnits="userSpaceOnUse">
<stop stop-color="#F7DF1E"/>
<stop offset="1" stop-color="#FFB800"/>
</linearGradient>
<linearGradient id="paint1_linear_141_144" x1="454.089" y1="27.3018" x2="537.838" y2="114.237" gradientUnits="userSpaceOnUse">
<stop stop-color="#3178C6"/>
<stop offset="1" stop-color="#0C488A"/>
</linearGradient>
</defs>
</svg>
