<svg width="17" height="15" viewBox="0 0 17 15" fill="none" xmlns="http://www.w3.org/2000/svg">
<path d="M16.7453 6.99017L8.01928 0.0821628C7.9523 0.0294943 7.86684 0 7.77676 0H5.73268C5.56176 0 5.48323 0.19382 5.61257 0.294944L13.7011 6.69944H0.184776C0.0831492 6.69944 0 6.77528 0 6.86798V8.13202C0 8.22472 0.0831492 8.30056 0.184776 8.30056H13.6988L5.61026 14.7051C5.48092 14.8083 5.55945 15 5.73037 15H7.84374C7.88763 15 7.93151 14.9853 7.96385 14.9579L16.7453 8.00983C16.8253 7.94641 16.8894 7.86808 16.9333 7.78013C16.9773 7.69218 17 7.59665 17 7.5C17 7.40335 16.9773 7.30782 16.9333 7.21987C16.8894 7.13192 16.8253 7.05359 16.7453 6.99017Z" fill="#F5F5F5"/>
</svg>
